<svg xmlns="http://www.w3.org/2000/svg" viewBox="0 0 42.47 44.81"><title>Ресурс 5</title><g id="Слой_2" data-name="Слой 2"><g id="Слой_1-2" data-name="Слой 1"><path d="M33.56,20.62l4.88,5H28.59L17.16,37.12a3.21,3.21,0,0,1-.8.61l-.8.43a6,6,0,0,1-.89.28,4.26,4.26,0,0,1-.89.09,5.07,5.07,0,0,1-.94-.09,3.45,3.45,0,0,1-.84-.28,8.14,8.14,0,0,1-.89-.43,2,2,0,0,1-.7-.61l-9-9A4.59,4.59,0,0,1,.33,26.53,4.81,4.81,0,0,1,0,24.75,5,5,0,0,1,.33,23a3.76,3.76,0,0,1,1.08-1.55L8,14.81v-10A4.75,4.75,0,0,1,9.38,1.41a4.68,4.68,0,0,1,1.54-1A4.94,4.94,0,0,1,12.84,0a4.65,4.65,0,0,1,1.83.38,4.78,4.78,0,0,1,3,4.4v.47L17.91,5ZM27.94,24h6.65L17.81,7.31l-.19.19V19.22H16V9.09L2.44,22.59a4.3,4.3,0,0,0-.61,1,2.91,2.91,0,0,0-.24,1.13A3.09,3.09,0,0,0,1.83,26a4.12,4.12,0,0,0,.61,1l9.09,9a2,2,0,0,0,1,.66,4.06,4.06,0,0,0,2.39,0,2.82,2.82,0,0,0,1-.66ZM9.56,4.78v8.44L16,6.84V4.78a2.67,2.67,0,0,0-.28-1.22,6,6,0,0,0-.66-1,5.14,5.14,0,0,0-1-.65,2.64,2.64,0,0,0-1.22-.29,2.87,2.87,0,0,0-1.31.29,5.44,5.44,0,0,0-1,.65,6,6,0,0,0-.66,1A2.8,2.8,0,0,0,9.56,4.78ZM42.28,38.91a.86.86,0,0,1,.1.37.38.38,0,0,0,.09.28,5,5,0,0,1-.42,2.06A6.58,6.58,0,0,1,41,43.31a6.58,6.58,0,0,1-1.69,1.08,4.74,4.74,0,0,1-2,.42,5,5,0,0,1-2.06-.42,6.58,6.58,0,0,1-1.69-1.08,6.86,6.86,0,0,1-1.08-1.69,5,5,0,0,1-.42-2.06V39q.28-3.28,5.16-10.22Q42,35.62,42.28,38.91Zm-5.06,4.31a3.61,3.61,0,0,0,2.53-1A5.14,5.14,0,0,0,40.5,41a2.69,2.69,0,0,0,.19-1.41v-.47a7.77,7.77,0,0,0-.47-1.82c-.25-.66-.53-1.33-.84-2s-.76-1.34-1.13-2-.75-1.22-1.13-1.78c-.37.56-.74,1.16-1.12,1.78s-.75,1.28-1.12,2-.6,1.38-.85,2.06a8.06,8.06,0,0,0-.47,1.88v.37A3.69,3.69,0,0,0,33.84,41a3.91,3.91,0,0,0,.85,1.22,3.55,3.55,0,0,0,1.12.75A3.69,3.69,0,0,0,37.22,43.22Z"/></g></g></svg>