<svg xmlns="http://www.w3.org/2000/svg" viewBox="0 0 25.5 43.13"><title>Ресурс 9</title><g id="Слой_2" data-name="Слой 2"><g id="Слой_1-2" data-name="Слой 1"><path d="M23.34,0a2.86,2.86,0,0,1,.89.14,1.79,1.79,0,0,1,.71.42,3.15,3.15,0,0,1,.42.75,2.48,2.48,0,0,1,.14.85V41a2.47,2.47,0,0,1-.14.84,3.15,3.15,0,0,1-.42.75,1.68,1.68,0,0,1-.71.42,2.6,2.6,0,0,1-.89.14H2.16A2.6,2.6,0,0,1,1.27,43a1.68,1.68,0,0,1-.71-.42,3.15,3.15,0,0,1-.42-.75A2.47,2.47,0,0,1,0,41V2.16a2.48,2.48,0,0,1,.14-.85A3.15,3.15,0,0,1,.56.56,1.79,1.79,0,0,1,1.27.14,2.86,2.86,0,0,1,2.16,0Zm.57,4.78V2.16a.62.62,0,0,0-.14-.43.62.62,0,0,0-.43-.14H2.16a.62.62,0,0,0-.43.14.62.62,0,0,0-.14.43V4.78Zm0,27.19V6.38H1.59V32Zm0,9V33.56H1.59V41a.57.57,0,0,0,.14.42.62.62,0,0,0,.43.14H23.34a.62.62,0,0,0,.43-.14A.57.57,0,0,0,23.91,41Zm-13.6-4.22v1.59h4.88V36.75Z"/></g></g></svg>