<svg xmlns="http://www.w3.org/2000/svg" viewBox="0 0 39.75 39.75"><title>Ресурс 10</title><g id="Слой_2" data-name="Слой 2"><g id="Слой_1-2" data-name="Слой 1"><path d="M33.66,7.22a18.77,18.77,0,0,1,2.62,3.28,21.21,21.21,0,0,1,1.88,3.75,17.33,17.33,0,0,1,1.22,4,26.78,26.78,0,0,1,.37,4.41,22.53,22.53,0,0,1-.52,4.83,23.36,23.36,0,0,1-1.45,4.54,25.26,25.26,0,0,1-2.48,4.13A21.18,21.18,0,0,1,32,39.75l-1-1.13.28-.28.19-.18L17.16,23.81l-5.44,5.35v4L6.19,38.72V33.66H1L6.66,28h3.93L16,22.69,1.69,8.25a.67.67,0,0,1-.24.28,1.55,1.55,0,0,0-.23.19L0,7.69A23.4,23.4,0,0,1,3.56,4.45,25.69,25.69,0,0,1,7.69,2,26.27,26.27,0,0,1,12.28.52a23,23,0,0,1,9.24-.1,25.34,25.34,0,0,1,4.07,1.17,20.11,20.11,0,0,1,3.66,1.93,24.64,24.64,0,0,1,3.28,2.57L37,1.59H33.38V0h6.37V6.47H38.16V2.72ZM2.81,7.12,17.16,21.47,31.41,7.12a30,30,0,0,0-3.05-2.29,17,17,0,0,0-3.42-1.74A18.69,18.69,0,0,0,21.19,2a21.51,21.51,0,0,0-4-.38,23.52,23.52,0,0,0-4,.33A18.52,18.52,0,0,0,9.38,3,25.26,25.26,0,0,0,5.91,4.78,19.53,19.53,0,0,0,2.81,7.12Zm7.41,25.32V29.53H7.41L5,32H7.78v2.91l2.34-2.44ZM32.53,8.34,18.28,22.69,32.53,37A19.42,19.42,0,0,0,35,33.84a25.73,25.73,0,0,0,1.78-3.46,23.32,23.32,0,0,0,1-3.76,20.93,20.93,0,0,0,.38-3.93,21.43,21.43,0,0,0-.38-4,20.69,20.69,0,0,0-1.12-3.85,17,17,0,0,0-1.74-3.42A23,23,0,0,0,32.53,8.34Z"/></g></g></svg>