<svg xmlns="http://www.w3.org/2000/svg" viewBox="0 0 43.56 43.31"><title>Ресурс 8</title><g id="Слой_2" data-name="Слой 2"><g id="Слой_1-2" data-name="Слой 1"><path d="M9.47,33.94,0,31.88l1.88-3.76,8.71-.46a8.8,8.8,0,0,1,.94-1.22c.44-.5.81-.91,1.13-1.22l7.87-8L4,9.19,8.25,5.06,29.16,8.72l7.4-7.41A2.21,2.21,0,0,1,37.27.7a9.18,9.18,0,0,1,.89-.42A5,5,0,0,1,39.28.05c.38,0,.78,0,1.22,0A10,10,0,0,1,42,.09a6.8,6.8,0,0,0,.71.1L43,.28l.19.47a6.79,6.79,0,0,1,.33,1.73,6.68,6.68,0,0,1-.14,1.74A5.14,5.14,0,0,1,43,5.77a4.21,4.21,0,0,1-.79,1.17l-7.41,7.5,3.66,20.81-4.22,4.13L26.16,23l-7.32,7.41c-.43.37-1,.87-1.64,1.5s-1.14,1.06-1.45,1.31l-.66,8.15-3.65,2Zm1.31-1.32L12.56,41l1-.56.66-8,.19-.19c1.68-1.56,2.78-2.56,3.28-3l8.9-9,8.07,16.41,2-2L33,13.88l8.06-8.07a2.78,2.78,0,0,0,.8-1.64,6.12,6.12,0,0,0,0-2.48,2,2,0,0,0-.61-.1h-.7a8.73,8.73,0,0,0-1.45.14,2.49,2.49,0,0,0-1.36.71l-8,8L8.81,6.75l-2.06,2,16.5,8.16-9.47,9.46c-.37.38-.83.89-1.36,1.55a7,7,0,0,0-.8,1.08l-.18.28-8.53.47-.57,1Z"/></g></g></svg>